<svg xmlns="http://www.w3.org/2000/svg" version="1.1" xmlns:xlink="http://www.w3.org/1999/xlink" xmlns:svgjs="http://svgjs.dev/svgjs" width="1500" height="1500" viewBox="0 0 1500 1500"><rect width="1500" height="1500" fill="#000000"></rect><g transform="matrix(0.6666666666666666,0,0,0.6666666666666666,249.39393939393938,675.1796136648712)"><svg viewBox="0 0 396 59" data-background-color="#faff69" preserveAspectRatio="xMidYMid meet" height="223" width="1500" xmlns="http://www.w3.org/2000/svg" xmlns:xlink="http://www.w3.org/1999/xlink"><g id="tight-bounds" transform="matrix(1,0,0,1,0.2400000000000091,0.1932923347932558)"><svg viewBox="0 0 395.52 58.61341533041349" height="58.61341533041349" width="395.52"><g><svg viewBox="0 0 488.1733140275302 72.344016" height="58.61341533041349" width="395.52"><g><svg viewBox="0 0 488.1733140275302 72.344016" height="72.344016" width="488.1733140275302"><g id="textblocktransform"><svg viewBox="0 0 488.1733140275302 72.344016" height="72.344016" width="488.1733140275302" id="textblock"><g><svg viewBox="0 0 488.1733140275302 72.344016" height="72.344016" width="488.1733140275302"><g><svg><g></g><g></g></svg></g><g><svg><g><svg></svg></g><g></g></svg></g><g id="text-0"><svg viewBox="0 0 488.1733140275302 72.344016" height="72.344016" width="488.1733140275302"><g transform="matrix(1,0,0,1,0,8.887022904187369)"><svg width="395.52" viewBox="4.5 -37 354.72 48.6" height="54.56997019162526" data-palette-color="#222222"><g class="wordmark-text-0" data-fill-palette-color="primary"><path d="M9.25 0L4.5 0 4.5-35 9.25-35 9.25-20.05 26.5-20.05 26.5-35 31.25-35 31.25 0 26.5 0 26.5-15.95 9.25-15.95 9.25 0ZM50.15 0.6L50.15 0.6Q44.55 0.6 41.27-2.98 38-6.55 38-13L38-13Q38-16.9 39.47-19.98 40.95-23.05 43.6-24.83 46.25-26.6 49.75-26.6L49.75-26.6Q53.5-26.6 55.97-24.98 58.45-23.35 59.7-20.6 60.95-17.85 60.95-14.55L60.95-14.55Q60.95-12.8 60.8-11.15L60.8-11.15 42.6-11.15Q43.05-7.5 45.15-5.45 47.25-3.4 50.7-3.4L50.7-3.4Q52.95-3.4 54.75-3.88 56.55-4.35 58.2-5.1L58.2-5.1 59.25-1.25Q57.45-0.45 55.2 0.08 52.95 0.6 50.15 0.6ZM42.55-14.8L42.55-14.8 56.8-14.8Q56.8-18.6 54.9-20.65 53-22.7 49.65-22.7L49.65-22.7Q46.75-22.7 44.85-20.68 42.95-18.65 42.55-14.8ZM76.9 0.6L76.9 0.6Q73.65 0.6 71-1.05 68.35-2.7 66.77-5.73 65.2-8.75 65.2-12.85L65.2-12.85Q65.2-16.75 66.77-19.85 68.35-22.95 71.12-24.78 73.9-26.6 77.5-26.6L77.5-26.6Q79.75-26.6 81.57-25.83 83.4-25.05 84.75-23.9L84.75-23.9 84.75-26 88.85-26 88.85-6.3Q88.85-4.4 89.77-3.83 90.7-3.25 91.8-3.25L91.8-3.25 90.85 0.25Q86.05 0.25 85.05-3.65L85.05-3.65Q83.9-2.05 81.92-0.73 79.95 0.6 76.9 0.6ZM77.9-3.4L77.9-3.4Q79.8-3.4 81.5-4.33 83.2-5.25 84.35-6.65L84.35-6.65 84.35-20.6Q83-21.55 81.37-22.13 79.75-22.7 77.95-22.7L77.95-22.7Q75.55-22.7 73.72-21.48 71.9-20.25 70.85-18.07 69.8-15.9 69.8-13L69.8-13Q69.8-10.2 70.85-8.03 71.9-5.85 73.75-4.63 75.6-3.4 77.9-3.4ZM105.69 0.6L105.69 0.6Q103.39 0.6 101.54-0.28 99.69-1.15 98.62-3.1 97.54-5.05 97.54-8.15L97.54-8.15 97.54-37 102.04-37 102.04-8.6Q102.04-5.9 103.17-4.6 104.29-3.3 106.29-3.3L106.29-3.3Q107.24-3.3 108.17-3.53 109.09-3.75 109.74-4.05L109.74-4.05 110.84-0.4Q109.94 0 108.62 0.3 107.29 0.6 105.69 0.6ZM124.19 0.6L124.19 0.6Q120.44 0.6 118.27-1.88 116.09-4.35 116.09-8.95L116.09-8.95 116.09-21.15 111.59-21.15 111.59-25.05 116.19-25.05 117.14-33.25 120.59-33.25 120.59-25.05 127.79-25.05 127.79-21.15 120.59-21.15 120.59-8.6Q120.59-5.7 121.82-4.55 123.04-3.4 124.74-3.4L124.74-3.4Q125.99-3.4 127.12-3.8 128.24-4.2 129.19-4.75L129.19-4.75 130.44-1.15Q129.44-0.55 127.74 0.03 126.04 0.6 124.19 0.6ZM139.44 0L134.94 0 134.94-37 139.44-37 139.44-21.85Q140.84-23.9 142.99-25.25 145.14-26.6 148.04-26.6L148.04-26.6Q152.44-26.6 154.61-23.95 156.79-21.3 156.79-16.95L156.79-16.95 156.79 0 152.29 0 152.29-16.45Q152.29-19.25 150.99-20.95 149.69-22.65 147.34-22.65L147.34-22.65Q145.04-22.65 142.96-21.03 140.89-19.4 139.44-17.2L139.44-17.2 139.44 0ZM165.19 11.6L165.19 11.6Q163.69 11.6 162.56 11.3 161.44 11 160.79 10.6L160.79 10.6 161.79 6.85Q162.39 7.2 163.29 7.45 164.19 7.7 165.29 7.7L165.29 7.7Q167.39 7.7 169.04 6.35 170.69 5 172.19 1.05L172.19 1.05 173.34-1.95 170.94-1.95 160.79-24.8 164.79-26.6 174.49-4.95 182.04-26.4 186.19-24.8 176.64 1.3Q175.19 5.3 173.49 7.55 171.79 9.8 169.74 10.7 167.69 11.6 165.19 11.6ZM212.18 0L191.18 0 191.18-35 212.18-35 212.18-30.9 195.93-30.9 195.93-20.25 209.93-20.25 209.93-16.25 195.93-16.25 195.93-4.1 212.18-4.1 212.18 0ZM222.93 0L218.43 0 218.43-26 222.78-26 222.78-21.65Q224.18-23.75 226.36-25.18 228.53-26.6 231.53-26.6L231.53-26.6Q235.93-26.6 238.11-23.95 240.28-21.3 240.28-16.95L240.28-16.95 240.28 0 235.78 0 235.78-16.45Q235.78-19.25 234.46-20.95 233.13-22.65 230.78-22.65L230.78-22.65Q228.48-22.65 226.43-21.03 224.38-19.4 222.93-17.2L222.93-17.2 222.93 0ZM258.98 0.6L258.98 0.6Q255.28 0.6 252.33-1.13 249.38-2.85 247.7-5.93 246.03-9 246.03-13L246.03-13Q246.03-17.2 247.73-20.25 249.43-23.3 252.38-24.95 255.33-26.6 258.98-26.6L258.98-26.6Q262.63-26.6 265.55-24.95 268.48-23.3 270.2-20.28 271.93-17.25 271.93-13.1L271.93-13.1Q271.93-8.95 270.23-5.88 268.53-2.8 265.6-1.1 262.68 0.6 258.98 0.6ZM258.98-3.4L258.98-3.4Q262.93-3.4 265.13-6.08 267.33-8.75 267.33-13L267.33-13Q267.33-15.6 266.23-17.78 265.13-19.95 263.25-21.28 261.38-22.6 258.98-22.6L258.98-22.6Q255.03-22.6 252.83-20 250.63-17.4 250.63-13.1L250.63-13.1Q250.63-10.5 251.73-8.28 252.83-6.05 254.7-4.73 256.58-3.4 258.98-3.4ZM286.43 0.6L286.43 0.6Q284.18 0.6 282.18-0.35 280.18-1.3 278.93-3.43 277.68-5.55 277.68-9.1L277.68-9.1 277.68-26 282.18-26 282.18-9.7Q282.18-6.65 283.48-5.03 284.78-3.4 287.28-3.4L287.28-3.4Q289.32-3.4 291.25-4.23 293.18-5.05 294.68-6.45L294.68-6.45 294.68-26 299.18-26 299.18-6.75Q299.18-4.6 300.1-3.93 301.03-3.25 302.13-3.25L302.13-3.25 301.18 0.25Q296.53 0.25 295.43-3.45L295.43-3.45Q293.68-1.65 291.38-0.53 289.07 0.6 286.43 0.6ZM317.67 11.6L317.67 11.6Q315.37 11.6 313.2 11.05 311.02 10.5 309.32 9.4L309.32 9.4 310.97 5.5Q312.17 6.45 313.77 7.08 315.37 7.7 317.67 7.7L317.67 7.7Q321.22 7.7 323.25 5.83 325.27 3.95 325.27-0.15L325.27-0.15 325.27-3.35Q324.27-2.15 322.4-1.07 320.52 0 317.92 0L317.92 0Q314.97 0 312.32-1.53 309.67-3.05 308.02-6 306.37-8.95 306.37-13.1L306.37-13.1Q306.37-17 308-20.05 309.62-23.1 312.37-24.85 315.12-26.6 318.42-26.6L318.42-26.6Q320.62-26.6 322.42-25.85 324.22-25.1 325.52-24L325.52-24 325.52-26 329.62-26 329.62-0.6Q329.62 3.7 328.12 6.4 326.62 9.1 323.95 10.35 321.27 11.6 317.67 11.6ZM318.92-4L318.92-4Q320.92-4 322.52-4.9 324.12-5.8 325.12-7L325.12-7 325.12-20.6Q324.02-21.4 322.47-22.05 320.92-22.7 318.87-22.7L318.87-22.7Q316.82-22.7 315.02-21.6 313.22-20.5 312.1-18.43 310.97-16.35 310.97-13.35L310.97-13.35Q310.97-10.5 312.1-8.4 313.22-6.3 315.02-5.15 316.82-4 318.92-4ZM341.87 0L337.37 0 337.37-37 341.87-37 341.87-21.85Q343.27-23.9 345.42-25.25 347.57-26.6 350.47-26.6L350.47-26.6Q354.87-26.6 357.05-23.95 359.22-21.3 359.22-16.95L359.22-16.95 359.22 0 354.72 0 354.72-16.45Q354.72-19.25 353.42-20.95 352.12-22.65 349.77-22.65L349.77-22.65Q347.47-22.65 345.39-21.03 343.32-19.4 341.87-17.2L341.87-17.2 341.87 0Z" fill="#ffffff" data-fill-palette-color="primary"></path></g></svg></g><g><svg xmlns="http://www.w3.org/2000/svg" xmlns:xlink="http://www.w3.org/1999/xlink" version="1.1" x="414.0852" y="0" viewBox="11.017823632605118 11.459999999999999 37.963698158539415 37.07000000000001" style="enable-background:new 0 0 60 60;" xml:space="preserve" height="72.344016" width="74.08811402753022" class="icon-cg-0" data-fill-palette-color="accent" id="cg-0"><path d="M48.85 34.1L35.82 11.92c-0.17-0.29-0.47-0.46-0.81-0.46s-0.64 0.18-0.81 0.46L30 19.08l-4.21-7.15c-0.17-0.29-0.47-0.46-0.81-0.46s-0.64 0.18-0.81 0.46L11.15 34.1c-0.22 0.37-0.16 0.83 0.14 1.13l13.03 13.03c0.18 0.18 0.42 0.27 0.66 0.27s0.48-0.09 0.66-0.27L30 43.91l4.35 4.35c0.18 0.18 0.42 0.27 0.66 0.27s0.48-0.09 0.66-0.27l13.03-13.03C49.01 34.93 49.07 34.46 48.85 34.1zM24.99 46.28L13.13 34.42l11.86-20.18 3.93 6.68L21.17 34.1c-0.22 0.37-0.16 0.83 0.14 1.13l7.36 7.36L24.99 46.28zM30 22.77l6.85 11.65L30 41.27l-6.85-6.85L30 22.77zM35.01 46.28l-3.69-3.69 7.36-7.36c0.3-0.3 0.36-0.77 0.14-1.13l-7.74-13.17 3.93-6.68 11.86 20.18L35.01 46.28z" fill="#ffffff" data-fill-palette-color="accent"></path></svg></g></svg></g></svg></g></svg></g></svg></g><g></g></svg></g><defs></defs></svg><rect width="395.52" height="58.61341533041349" fill="none" stroke="none" visibility="hidden"></rect></g></svg></g></svg>